<mxfile>
    <diagram id="58kEGSyiGWkZ_5Ts6FbC" name="Page-1">
        <mxGraphModel dx="1048" dy="781" grid="1" gridSize="10" guides="1" tooltips="1" connect="1" arrows="1" fold="1" page="1" pageScale="1" pageWidth="880" pageHeight="700" background="#ffffff" math="0" shadow="0">
            <root>
                <mxCell id="0"/>
                <mxCell id="1" parent="0"/>
                <mxCell id="7" value="" style="endArrow=none;html=1;strokeWidth=5;strokeColor=#B3B3B3;" parent="1" edge="1">
                    <mxGeometry width="50" height="50" relative="1" as="geometry">
                        <mxPoint x="40" y="680" as="sourcePoint"/>
                        <mxPoint x="40" y="40" as="targetPoint"/>
                    </mxGeometry>
                </mxCell>
                <mxCell id="8" value="Chloroplast" style="text;html=1;strokeColor=none;fillColor=none;align=center;verticalAlign=middle;whiteSpace=wrap;rounded=0;fontColor=#000000;" parent="1" vertex="1">
                    <mxGeometry x="630" y="10" width="90" height="20" as="geometry"/>
                </mxCell>
                <mxCell id="10" value="" style="endArrow=none;html=1;strokeWidth=5;strokeColor=#B3B3B3;" parent="1" edge="1">
                    <mxGeometry width="50" height="50" relative="1" as="geometry">
                        <mxPoint x="161" y="680" as="sourcePoint"/>
                        <mxPoint x="161" y="40" as="targetPoint"/>
                    </mxGeometry>
                </mxCell>
                <mxCell id="11" value="" style="endArrow=none;html=1;strokeWidth=5;strokeColor=#B3B3B3;" parent="1" edge="1">
                    <mxGeometry width="50" height="50" relative="1" as="geometry">
                        <mxPoint x="40" y="680" as="sourcePoint"/>
                        <mxPoint x="720" y="680" as="targetPoint"/>
                    </mxGeometry>
                </mxCell>
                <mxCell id="12" value="" style="endArrow=none;html=1;strokeWidth=5;strokeColor=#B3B3B3;" parent="1" edge="1">
                    <mxGeometry width="50" height="50" relative="1" as="geometry">
                        <mxPoint x="40" y="40" as="sourcePoint"/>
                        <mxPoint x="720" y="40" as="targetPoint"/>
                    </mxGeometry>
                </mxCell>
                <mxCell id="13" value="Lumen" style="text;html=1;strokeColor=none;fillColor=none;align=center;verticalAlign=middle;whiteSpace=wrap;rounded=0;fontColor=#000000;" parent="1" vertex="1">
                    <mxGeometry x="80" y="50" width="40" height="20" as="geometry"/>
                </mxCell>
                <mxCell id="14" value="Stroma" style="text;html=1;strokeColor=none;fillColor=none;align=center;verticalAlign=middle;whiteSpace=wrap;rounded=0;fontColor=#000000;" parent="1" vertex="1">
                    <mxGeometry x="400" y="50" width="40" height="20" as="geometry"/>
                </mxCell>
                <mxCell id="15" value="" style="endArrow=none;html=1;strokeWidth=5;strokeColor=#B3B3B3;" parent="1" edge="1">
                    <mxGeometry width="50" height="50" relative="1" as="geometry">
                        <mxPoint x="239" y="680" as="sourcePoint"/>
                        <mxPoint x="239" y="40" as="targetPoint"/>
                    </mxGeometry>
                </mxCell>
                <mxCell id="20" value="PSII" style="rounded=0;whiteSpace=wrap;html=1;strokeColor=#000000;strokeWidth=2;" parent="1" vertex="1">
                    <mxGeometry x="160" y="610" width="80" height="40" as="geometry"/>
                </mxCell>
                <mxCell id="46" value="ADP" style="ellipse;whiteSpace=wrap;html=1;strokeColor=#000000;strokeWidth=1;" parent="1" vertex="1">
                    <mxGeometry x="260" y="110" width="40" height="20" as="geometry"/>
                </mxCell>
                <mxCell id="47" value="ATP" style="ellipse;whiteSpace=wrap;html=1;strokeColor=#005700;strokeWidth=2;fillColor=#008a00;fontColor=#ffffff;" parent="1" vertex="1">
                    <mxGeometry x="260" y="150" width="40" height="20" as="geometry"/>
                </mxCell>
                <mxCell id="48" value="14/3" style="ellipse;whiteSpace=wrap;html=1;strokeWidth=2;strokeColor=#6F0000;" parent="1" vertex="1">
                    <mxGeometry x="310" y="125" width="30" height="30" as="geometry"/>
                </mxCell>
                <mxCell id="50" value="&lt;font style=&quot;font-size: 8px&quot;&gt;NADP&lt;/font&gt;" style="ellipse;whiteSpace=wrap;html=1;strokeColor=#000000;strokeWidth=1;" parent="1" vertex="1">
                    <mxGeometry x="280.00000000000006" y="300" width="40" height="20" as="geometry"/>
                </mxCell>
                <mxCell id="51" value="&lt;font style=&quot;font-size: 8px&quot;&gt;NADPH&lt;/font&gt;" style="ellipse;whiteSpace=wrap;html=1;strokeColor=#006EAF;strokeWidth=2;fillColor=#1ba1e2;fontColor=#ffffff;" parent="1" vertex="1">
                    <mxGeometry x="330.00000000000006" y="330" width="40" height="20" as="geometry"/>
                </mxCell>
                <mxCell id="53" value="H&lt;sub&gt;2&lt;/sub&gt;O" style="ellipse;whiteSpace=wrap;html=1;strokeColor=#000000;strokeWidth=1;" parent="1" vertex="1">
                    <mxGeometry x="90.00000000000003" y="650" width="40" height="20" as="geometry"/>
                </mxCell>
                <mxCell id="54" value="Â½ O&lt;span style=&quot;font-size: 10px&quot;&gt;2&lt;/span&gt;" style="ellipse;whiteSpace=wrap;html=1;strokeColor=#000000;strokeWidth=1;" parent="1" vertex="1">
                    <mxGeometry x="50.00000000000003" y="580" width="40" height="20" as="geometry"/>
                </mxCell>
                <mxCell id="55" value="2" style="ellipse;whiteSpace=wrap;html=1;strokeWidth=2;strokeColor=#6F0000;" parent="1" vertex="1">
                    <mxGeometry x="110" y="580" width="20" height="20" as="geometry"/>
                </mxCell>
                <mxCell id="56" value="" style="verticalLabelPosition=bottom;verticalAlign=top;html=1;shape=mxgraph.basic.flash;rounded=0;shadow=0;comic=0;fillColor=#FFFF00;gradientColor=none;rotation=20;strokeColor=#000000;" parent="1" vertex="1">
                    <mxGeometry x="220" y="610" width="10" height="20" as="geometry"/>
                </mxCell>
                <mxCell id="57" value="PTOX" style="rounded=0;whiteSpace=wrap;html=1;strokeColor=#000000;strokeWidth=2;" parent="1" vertex="1">
                    <mxGeometry x="242" y="550" width="40" height="20" as="geometry"/>
                </mxCell>
                <mxCell id="58" value="NDH" style="rounded=0;whiteSpace=wrap;html=1;strokeColor=#000000;strokeWidth=2;" parent="1" vertex="1">
                    <mxGeometry x="242" y="520" width="40" height="20" as="geometry"/>
                </mxCell>
                <mxCell id="59" value="FQR" style="rounded=0;whiteSpace=wrap;html=1;strokeColor=#000000;strokeWidth=2;" parent="1" vertex="1">
                    <mxGeometry x="242" y="450" width="40" height="20" as="geometry"/>
                </mxCell>
                <mxCell id="60" value="" style="group" parent="1" vertex="1" connectable="0">
                    <mxGeometry x="160" y="240" width="80" height="90" as="geometry"/>
                </mxCell>
                <mxCell id="61" value="PSI" style="rounded=0;whiteSpace=wrap;html=1;strokeColor=#000000;strokeWidth=2;" parent="60" vertex="1">
                    <mxGeometry width="80" height="90" as="geometry"/>
                </mxCell>
                <mxCell id="62" value="" style="verticalLabelPosition=bottom;verticalAlign=top;html=1;shape=mxgraph.basic.flash;rounded=0;shadow=0;comic=0;fillColor=#FFFF00;gradientColor=none;rotation=20;strokeColor=#000000;" parent="60" vertex="1">
                    <mxGeometry x="60" width="10" height="45" as="geometry"/>
                </mxCell>
                <mxCell id="66" value="&lt;font style=&quot;font-size: 5px&quot;&gt;PQ&lt;/font&gt;" style="ellipse;whiteSpace=wrap;html=1;strokeColor=#000000;strokeWidth=1;spacingTop=-6;" parent="1" vertex="1">
                    <mxGeometry x="210" y="500" width="20" height="20" as="geometry"/>
                </mxCell>
                <mxCell id="69" value="&lt;font style=&quot;font-size: 5px&quot;&gt;PQH&lt;sub&gt;2&lt;/sub&gt;&lt;/font&gt;" style="ellipse;whiteSpace=wrap;html=1;strokeColor=#000000;strokeWidth=1;spacingTop=-6;" parent="1" vertex="1">
                    <mxGeometry x="170" y="480" width="20" height="20" as="geometry"/>
                </mxCell>
                <mxCell id="93" value="" style="ellipse;whiteSpace=wrap;html=1;gradientColor=none;fillColor=none;strokeColor=none;" parent="1" vertex="1">
                    <mxGeometry x="610" y="418" width="39" height="18" as="geometry"/>
                </mxCell>
                <mxCell id="100" value="4" style="ellipse;whiteSpace=wrap;html=1;strokeWidth=2;strokeColor=#6F0000;" parent="1" vertex="1">
                    <mxGeometry x="120" y="390" width="20" height="20" as="geometry"/>
                </mxCell>
                <mxCell id="101" style="edgeStyle=orthogonalEdgeStyle;curved=1;rounded=0;orthogonalLoop=1;jettySize=auto;html=1;strokeWidth=1;fontSize=12;entryX=0;entryY=0.5;entryDx=0;entryDy=0;dashed=1;strokeColor=#000000;exitX=1;exitY=0.5;exitDx=0;exitDy=0;" parent="1" source="151" target="136" edge="1">
                    <mxGeometry relative="1" as="geometry">
                        <mxPoint x="135" y="80" as="sourcePoint"/>
                    </mxGeometry>
                </mxCell>
                <mxCell id="102" value="Leak" style="edgeLabel;html=1;align=center;verticalAlign=middle;resizable=0;points=[];labelBackgroundColor=#ffffff;fontColor=#000000;" parent="101" vertex="1" connectable="0">
                    <mxGeometry x="-0.0797" y="1" relative="1" as="geometry">
                        <mxPoint x="3.0999999999999996" y="1" as="offset"/>
                    </mxGeometry>
                </mxCell>
                <mxCell id="105" value="2" style="ellipse;whiteSpace=wrap;html=1;strokeWidth=2;strokeColor=#6F0000;" parent="1" vertex="1">
                    <mxGeometry x="250" y="590" width="20" height="20" as="geometry"/>
                </mxCell>
                <mxCell id="106" value="H&lt;sub&gt;2&lt;/sub&gt;O" style="ellipse;whiteSpace=wrap;html=1;strokeColor=#000000;strokeWidth=1;" parent="1" vertex="1">
                    <mxGeometry x="300" y="570" width="40" height="20" as="geometry"/>
                </mxCell>
                <mxCell id="107" value="Â½ O&lt;span style=&quot;font-size: 10px&quot;&gt;2&lt;/span&gt;" style="ellipse;whiteSpace=wrap;html=1;strokeColor=#000000;strokeWidth=1;" parent="1" vertex="1">
                    <mxGeometry x="300" y="545" width="40" height="20" as="geometry"/>
                </mxCell>
                <mxCell id="108" value="2" style="ellipse;whiteSpace=wrap;html=1;strokeWidth=2;strokeColor=#6F0000;" parent="1" vertex="1">
                    <mxGeometry x="360" y="545" width="20" height="20" as="geometry"/>
                </mxCell>
                <mxCell id="109" value="+" style="text;html=1;align=center;verticalAlign=middle;resizable=0;points=[];autosize=1;fontColor=#000000;" parent="1" vertex="1">
                    <mxGeometry x="340" y="545" width="20" height="20" as="geometry"/>
                </mxCell>
                <mxCell id="136" value="" style="ellipse;whiteSpace=wrap;html=1;strokeWidth=2;fillColor=none;strokeColor=none;" parent="1" vertex="1">
                    <mxGeometry x="270" y="70" width="20" height="20" as="geometry"/>
                </mxCell>
                <mxCell id="139" value="" style="ellipse;whiteSpace=wrap;html=1;strokeWidth=2;fillColor=none;strokeColor=none;" parent="1" vertex="1">
                    <mxGeometry x="110" y="130" width="20" height="20" as="geometry"/>
                </mxCell>
                <mxCell id="140" value="Fd" style="ellipse;whiteSpace=wrap;html=1;strokeColor=#000000;strokeWidth=1;" parent="1" vertex="1">
                    <mxGeometry x="240" y="320" width="40" height="20" as="geometry"/>
                </mxCell>
                <mxCell id="141" value="Fd&lt;sup&gt;-&lt;/sup&gt;" style="ellipse;whiteSpace=wrap;html=1;strokeColor=#000000;strokeWidth=1;" parent="1" vertex="1">
                    <mxGeometry x="290" y="350" width="40" height="20" as="geometry"/>
                </mxCell>
                <mxCell id="148" value="+" style="text;html=1;align=center;verticalAlign=middle;resizable=0;points=[];autosize=1;fontColor=#000000;" parent="1" vertex="1">
                    <mxGeometry x="90" y="580" width="20" height="20" as="geometry"/>
                </mxCell>
                <mxCell id="151" value="1" style="ellipse;whiteSpace=wrap;html=1;strokeWidth=2;strokeColor=#6F0000;" parent="1" vertex="1">
                    <mxGeometry x="110" y="70" width="20" height="20" as="geometry"/>
                </mxCell>
                <mxCell id="73" value="&lt;b&gt;MDA&lt;/b&gt;" style="ellipse;whiteSpace=wrap;html=1;strokeColor=#000000;" parent="1" vertex="1">
                    <mxGeometry x="400" y="536.95" width="41" height="22" as="geometry"/>
                </mxCell>
                <mxCell id="75" value="&lt;b&gt;ASC&lt;/b&gt;" style="ellipse;whiteSpace=wrap;html=1;strokeColor=#000000;" parent="1" vertex="1">
                    <mxGeometry x="400" y="457.95000000000005" width="41" height="21" as="geometry"/>
                </mxCell>
                <mxCell id="77" value="&lt;b&gt;DHA&lt;/b&gt;" style="ellipse;whiteSpace=wrap;html=1;strokeColor=#000000;" parent="1" vertex="1">
                    <mxGeometry x="455" y="577.45" width="36" height="17" as="geometry"/>
                </mxCell>
                <mxCell id="78" value="&lt;b&gt;ASC&lt;/b&gt;" style="ellipse;whiteSpace=wrap;html=1;strokeColor=#000000;" parent="1" vertex="1">
                    <mxGeometry x="455" y="607.45" width="36" height="17" as="geometry"/>
                </mxCell>
                <mxCell id="80" value="&lt;b&gt;GSH&lt;/b&gt;" style="ellipse;whiteSpace=wrap;html=1;strokeColor=#000000;" parent="1" vertex="1">
                    <mxGeometry x="520" y="535.95" width="39" height="18" as="geometry"/>
                </mxCell>
                <mxCell id="82" value="&lt;b&gt;GSSG&lt;/b&gt;" style="ellipse;whiteSpace=wrap;html=1;strokeColor=#000000;" parent="1" vertex="1">
                    <mxGeometry x="520" y="457.95000000000005" width="39" height="26" as="geometry"/>
                </mxCell>
                <mxCell id="85" value="2 O&lt;sub&gt;2&lt;/sub&gt;" style="ellipse;whiteSpace=wrap;html=1;strokeColor=#000000;strokeWidth=1;" parent="1" vertex="1">
                    <mxGeometry x="251.96999999999997" y="210" width="40" height="20" as="geometry"/>
                </mxCell>
                <mxCell id="87" value="2 O&lt;sub&gt;2&lt;/sub&gt;&lt;sup&gt;*&lt;/sup&gt;" style="ellipse;whiteSpace=wrap;html=1;strokeColor=#000000;strokeWidth=1;" parent="1" vertex="1">
                    <mxGeometry x="253.97000000000003" y="240" width="40" height="20" as="geometry"/>
                </mxCell>
                <mxCell id="89" value="&lt;span style=&quot;font-size: 10px&quot;&gt;2&lt;/span&gt;" style="ellipse;whiteSpace=wrap;html=1;strokeWidth=2;strokeColor=#6F0000;" parent="1" vertex="1">
                    <mxGeometry x="270" y="270" width="21.97" height="20" as="geometry"/>
                </mxCell>
                <mxCell id="90" value="O&lt;sub&gt;2&lt;/sub&gt;" style="ellipse;whiteSpace=wrap;html=1;strokeColor=#000000;strokeWidth=1;" parent="1" vertex="1">
                    <mxGeometry x="330" y="240.00000000000006" width="40" height="20" as="geometry"/>
                </mxCell>
                <mxCell id="91" value="H&lt;sub&gt;2&lt;/sub&gt;O&lt;sub&gt;2&lt;/sub&gt;" style="ellipse;whiteSpace=wrap;html=1;strokeColor=#000000;strokeWidth=1;" parent="1" vertex="1">
                    <mxGeometry x="330" y="270.00000000000006" width="40" height="20" as="geometry"/>
                </mxCell>
                <mxCell id="159" value="PC" style="ellipse;whiteSpace=wrap;html=1;strokeColor=#000000;strokeWidth=1;" parent="1" vertex="1">
                    <mxGeometry x="100" y="430" width="40" height="20" as="geometry"/>
                </mxCell>
                <mxCell id="160" value="PC&lt;sup&gt;-&lt;/sup&gt;" style="ellipse;whiteSpace=wrap;html=1;strokeColor=#000000;strokeWidth=1;" parent="1" vertex="1">
                    <mxGeometry x="130" y="320" width="40" height="20" as="geometry"/>
                </mxCell>
                <mxCell id="164" value="2" style="ellipse;whiteSpace=wrap;html=1;strokeWidth=2;strokeColor=#6F0000;" parent="1" vertex="1">
                    <mxGeometry x="250" y="390" width="20" height="20" as="geometry"/>
                </mxCell>
                <mxCell id="207" style="edgeStyle=orthogonalEdgeStyle;curved=1;rounded=0;orthogonalLoop=1;jettySize=auto;html=1;exitX=0.5;exitY=1;exitDx=0;exitDy=0;endArrow=classic;endFill=1;strokeColor=#000000;" parent="1" edge="1">
                    <mxGeometry relative="1" as="geometry">
                        <mxPoint x="-60" y="100" as="targetPoint"/>
                    </mxGeometry>
                </mxCell>
                <mxCell id="249" value="" style="group" parent="1" vertex="1" connectable="0">
                    <mxGeometry x="720" y="10" width="120" height="670" as="geometry"/>
                </mxCell>
                <mxCell id="5" value="" style="endArrow=none;html=1;strokeWidth=5;strokeColor=#B3B3B3;" parent="249" edge="1">
                    <mxGeometry width="50" height="50" relative="1" as="geometry">
                        <mxPoint y="670" as="sourcePoint"/>
                        <mxPoint y="30" as="targetPoint"/>
                    </mxGeometry>
                </mxCell>
                <mxCell id="6" value="" style="endArrow=none;html=1;strokeWidth=5;strokeColor=#B3B3B3;" parent="249" edge="1">
                    <mxGeometry width="50" height="50" relative="1" as="geometry">
                        <mxPoint x="40" y="670" as="sourcePoint"/>
                        <mxPoint x="40" y="30" as="targetPoint"/>
                    </mxGeometry>
                </mxCell>
                <mxCell id="9" value="Cytosol" style="text;html=1;strokeColor=none;fillColor=none;align=center;verticalAlign=middle;whiteSpace=wrap;rounded=0;fontColor=#000000;" parent="249" vertex="1">
                    <mxGeometry x="50" width="70" height="20" as="geometry"/>
                </mxCell>
                <mxCell id="110" value="" style="endArrow=none;html=1;strokeWidth=5;strokeColor=#B3B3B3;" parent="249" edge="1">
                    <mxGeometry width="50" height="50" relative="1" as="geometry">
                        <mxPoint x="40" y="30" as="sourcePoint"/>
                        <mxPoint x="120" y="30" as="targetPoint"/>
                    </mxGeometry>
                </mxCell>
                <mxCell id="111" value="" style="endArrow=none;html=1;strokeWidth=5;strokeColor=#B3B3B3;" parent="249" edge="1">
                    <mxGeometry width="50" height="50" relative="1" as="geometry">
                        <mxPoint x="40" y="670" as="sourcePoint"/>
                        <mxPoint x="120" y="670" as="targetPoint"/>
                    </mxGeometry>
                </mxCell>
                <mxCell id="209" value="DHAP" style="ellipse;whiteSpace=wrap;html=1;strokeColor=#000000;strokeWidth=1;" parent="1" vertex="1">
                    <mxGeometry x="540" y="360" width="40" height="20" as="geometry"/>
                </mxCell>
                <mxCell id="210" value="FBP" style="ellipse;whiteSpace=wrap;html=1;strokeColor=#000000;strokeWidth=1;" parent="1" vertex="1">
                    <mxGeometry x="540" y="280" width="40" height="20" as="geometry"/>
                </mxCell>
                <mxCell id="212" value="RUBP" style="ellipse;whiteSpace=wrap;html=1;strokeColor=#000000;strokeWidth=1;" parent="1" vertex="1">
                    <mxGeometry x="540" y="80" width="40" height="20" as="geometry"/>
                </mxCell>
                <mxCell id="213" value="CO2" style="ellipse;whiteSpace=wrap;html=1;strokeColor=#000000;strokeWidth=1;" parent="1" vertex="1">
                    <mxGeometry x="600" y="120" width="40" height="20" as="geometry"/>
                </mxCell>
                <mxCell id="214" value="" style="edgeStyle=orthogonalEdgeStyle;rounded=0;orthogonalLoop=1;jettySize=auto;html=1;" parent="1" source="215" target="213" edge="1">
                    <mxGeometry x="360" y="80" as="geometry"/>
                </mxCell>
                <mxCell id="215" value="&lt;font style=&quot;font-size: 8px&quot;&gt;Starch&lt;/font&gt;" style="ellipse;whiteSpace=wrap;html=1;strokeColor=#000000;strokeWidth=1;verticalAlign=middle;" parent="1" vertex="1">
                    <mxGeometry x="620" y="280" width="40" height="20" as="geometry"/>
                </mxCell>
                <mxCell id="216" value="F6P" style="ellipse;whiteSpace=wrap;html=1;strokeColor=#000000;strokeWidth=1;" parent="1" vertex="1">
                    <mxGeometry x="540" y="240" width="40" height="20" as="geometry"/>
                </mxCell>
                <mxCell id="220" value="RU5P" style="ellipse;whiteSpace=wrap;html=1;strokeColor=#000000;strokeWidth=1;" parent="1" vertex="1">
                    <mxGeometry x="400" y="80" width="40" height="20" as="geometry"/>
                </mxCell>
                <mxCell id="222" value="R5P" style="ellipse;whiteSpace=wrap;html=1;strokeColor=#000000;strokeWidth=1;" parent="1" vertex="1">
                    <mxGeometry x="360" y="160" width="40" height="20" as="geometry"/>
                </mxCell>
                <mxCell id="224" value="X5P" style="ellipse;whiteSpace=wrap;html=1;strokeColor=#000000;strokeWidth=1;" parent="1" vertex="1">
                    <mxGeometry x="440" y="160" width="40" height="20" as="geometry"/>
                </mxCell>
                <mxCell id="226" value="E4P" style="ellipse;whiteSpace=wrap;html=1;strokeColor=#000000;strokeWidth=1;" parent="1" vertex="1">
                    <mxGeometry x="440" y="320" width="40" height="20" as="geometry"/>
                </mxCell>
                <mxCell id="228" value="SBP" style="ellipse;whiteSpace=wrap;html=1;strokeColor=#000000;strokeWidth=1;" parent="1" vertex="1">
                    <mxGeometry x="400" y="280" width="40" height="20" as="geometry"/>
                </mxCell>
                <mxCell id="233" value="S7P" style="ellipse;whiteSpace=wrap;html=1;strokeColor=#000000;strokeWidth=1;" parent="1" vertex="1">
                    <mxGeometry x="400" y="240" width="40" height="20" as="geometry"/>
                </mxCell>
                <mxCell id="240" value="PGA" style="ellipse;whiteSpace=wrap;html=1;strokeColor=#000000;strokeWidth=1;" parent="1" vertex="1">
                    <mxGeometry x="660" y="80" width="40" height="20" as="geometry"/>
                </mxCell>
                <mxCell id="241" value="BPGA" style="ellipse;whiteSpace=wrap;html=1;strokeColor=#000000;strokeWidth=1;" parent="1" vertex="1">
                    <mxGeometry x="660" y="160" width="40" height="20" as="geometry"/>
                </mxCell>
                <mxCell id="244" value="GAP" style="ellipse;whiteSpace=wrap;html=1;strokeColor=#000000;strokeWidth=1;" parent="1" vertex="1">
                    <mxGeometry x="660" y="240" width="40" height="20" as="geometry"/>
                </mxCell>
                <object label="" reaction="vPTOX" id="2">
                    <mxCell style="edgeStyle=orthogonalEdgeStyle;curved=1;rounded=0;orthogonalLoop=1;jettySize=auto;html=1;exitX=0;exitY=0.5;exitDx=0;exitDy=0;entryX=0;entryY=0.5;entryDx=0;entryDy=0;strokeColor=#7f7f7f" parent="1" source="107" target="106" edge="1">
                        <mxGeometry relative="1" as="geometry">
                            <Array as="points">
                                <mxPoint x="280" y="555"/>
                                <mxPoint x="280" y="580"/>
                            </Array>
                        </mxGeometry>
                    </mxCell>
                </object>
                <object label="" reaction="vB6f" id="3">
                    <mxCell style="edgeStyle=orthogonalEdgeStyle;curved=1;rounded=0;orthogonalLoop=1;jettySize=auto;html=1;strokeWidth=1;fontSize=12;entryX=1;entryY=0.5;entryDx=0;entryDy=0;strokeColor=#404040;exitX=0;exitY=0.5;exitDx=0;exitDy=0" parent="1" source="164" target="100" edge="1">
                        <mxGeometry relative="1" as="geometry">
                            <mxPoint x="250" y="400" as="sourcePoint"/>
                        </mxGeometry>
                    </mxCell>
                </object>
                <object label="" reaction="vATPsynthase" id="4">
                    <mxCell style="edgeStyle=orthogonalEdgeStyle;curved=1;rounded=0;orthogonalLoop=1;jettySize=auto;html=1;exitX=1;exitY=0.5;exitDx=0;exitDy=0;strokeWidth=1;entryX=0;entryY=0.5;entryDx=0;entryDy=0;strokeColor=#343434" parent="1" source="139" target="48" edge="1">
                        <mxGeometry relative="1" as="geometry">
                            <mxPoint x="130" y="139.857142857143" as="sourcePoint"/>
                        </mxGeometry>
                    </mxCell>
                </object>
                <object label="" reaction="vPS2" id="18">
                    <mxCell style="edgeStyle=orthogonalEdgeStyle;curved=1;rounded=0;orthogonalLoop=1;jettySize=auto;html=1;exitX=0;exitY=0.5;exitDx=0;exitDy=0;entryX=1;entryY=0.5;entryDx=0;entryDy=0;strokeWidth=1;strokeColor=#4f4f4f" parent="1" source="20" target="55" edge="1">
                        <mxGeometry relative="1" as="geometry">
                            <Array as="points">
                                <mxPoint x="160" y="590"/>
                                <mxPoint x="130" y="590"/>
                            </Array>
                        </mxGeometry>
                    </mxCell>
                </object>
                <object label="" reaction="vATPsynthase" id="45">
                    <mxCell style="edgeStyle=orthogonalEdgeStyle;curved=1;rounded=0;orthogonalLoop=1;jettySize=auto;html=1;exitX=0;exitY=0.5;exitDx=0;exitDy=0;entryX=0;entryY=0.5;entryDx=0;entryDy=0;strokeWidth=1;strokeColor=#343434" parent="1" source="46" target="47" edge="1">
                        <mxGeometry relative="1" as="geometry"/>
                    </mxCell>
                </object>
                <object label="" reaction="vFNR" id="49">
                    <mxCell style="edgeStyle=orthogonalEdgeStyle;curved=1;rounded=0;orthogonalLoop=1;jettySize=auto;html=1;exitX=0.5;exitY=1;exitDx=0;exitDy=0;entryX=0;entryY=0.5;entryDx=0;entryDy=0;strokeWidth=1;strokeColor=#505050" parent="1" source="50" target="51" edge="1">
                        <mxGeometry relative="1" as="geometry">
                            <Array as="points">
                                <mxPoint x="300" y="340"/>
                            </Array>
                        </mxGeometry>
                    </mxCell>
                </object>
                <object label="" reaction="vPS2" id="52">
                    <mxCell style="edgeStyle=orthogonalEdgeStyle;curved=1;rounded=0;orthogonalLoop=1;jettySize=auto;html=1;exitX=1;exitY=0.5;exitDx=0;exitDy=0;entryX=0;entryY=0.5;entryDx=0;entryDy=0;strokeWidth=1;endArrow=none;endFill=0;strokeColor=#4f4f4f" parent="1" source="53" target="20" edge="1">
                        <mxGeometry relative="1" as="geometry">
                            <Array as="points">
                                <mxPoint x="160" y="660"/>
                            </Array>
                        </mxGeometry>
                    </mxCell>
                </object>
                <object label="" reaction="vCyc" id="155">
                    <mxCell style="edgeStyle=orthogonalEdgeStyle;curved=1;rounded=0;orthogonalLoop=1;jettySize=auto;html=1;exitX=1;exitY=0;exitDx=0;exitDy=0;entryX=1;entryY=1;entryDx=0;entryDy=0;strokeColor=#707070" parent="1" source="59" target="140" edge="1">
                        <mxGeometry relative="1" as="geometry">
                            <Array as="points">
                                <mxPoint x="274" y="450"/>
                                <mxPoint x="274" y="395"/>
                            </Array>
                        </mxGeometry>
                    </mxCell>
                </object>
                <object label="" reaction="vPS2" id="63">
                    <mxCell style="edgeStyle=orthogonalEdgeStyle;curved=1;rounded=0;orthogonalLoop=1;jettySize=auto;html=1;exitX=0.5;exitY=1;exitDx=0;exitDy=0;entryX=0.5;entryY=1;entryDx=0;entryDy=0;endArrow=classic;endFill=1;strokeWidth=1;strokeColor=#4f4f4f" parent="1" source="66" target="69" edge="1">
                        <mxGeometry relative="1" as="geometry">
                            <Array as="points">
                                <mxPoint x="220" y="610"/>
                                <mxPoint x="180" y="610"/>
                            </Array>
                            <mxPoint x="220" y="540" as="sourcePoint"/>
                            <mxPoint x="180" y="520" as="targetPoint"/>
                        </mxGeometry>
                    </mxCell>
                </object>
                <object label="" reaction="vNDH" id="64">
                    <mxCell style="edgeStyle=orthogonalEdgeStyle;curved=1;rounded=0;orthogonalLoop=1;jettySize=auto;html=1;exitX=0.5;exitY=1;exitDx=0;exitDy=0;entryX=0.5;entryY=1;entryDx=0;entryDy=0;endArrow=classic;endFill=1;strokeWidth=1;dashed=1;dashPattern=1 1;strokeColor=#7f7f7f" parent="1" source="66" target="69" edge="1">
                        <mxGeometry relative="1" as="geometry">
                            <Array as="points">
                                <mxPoint x="240" y="520"/>
                                <mxPoint x="240" y="540"/>
                                <mxPoint x="180" y="540"/>
                            </Array>
                        </mxGeometry>
                    </mxCell>
                </object>
                <object label="" reaction="vPTOX" id="65">
                    <mxCell style="edgeStyle=orthogonalEdgeStyle;curved=1;rounded=0;orthogonalLoop=1;jettySize=auto;html=1;exitX=0.5;exitY=1;exitDx=0;exitDy=0;entryX=0.5;entryY=1;entryDx=0;entryDy=0;endArrow=classic;endFill=1;strokeWidth=1;dashed=1;strokeColor=#7f7f7f" parent="1" source="69" target="66" edge="1">
                        <mxGeometry relative="1" as="geometry">
                            <Array as="points">
                                <mxPoint x="180" y="570"/>
                                <mxPoint x="240" y="570"/>
                                <mxPoint x="240" y="560"/>
                                <mxPoint x="220" y="560"/>
                            </Array>
                        </mxGeometry>
                    </mxCell>
                </object>
                <object label="" reaction="vB6f" id="67">
                    <mxCell style="edgeStyle=orthogonalEdgeStyle;curved=1;rounded=0;orthogonalLoop=1;jettySize=auto;html=1;exitX=0.5;exitY=0;exitDx=0;exitDy=0;entryX=0.5;entryY=0;entryDx=0;entryDy=0;endArrow=classic;endFill=1;strokeWidth=1;strokeColor=#404040" parent="1" source="69" target="66" edge="1">
                        <mxGeometry relative="1" as="geometry">
                            <Array as="points">
                                <mxPoint x="180" y="420"/>
                                <mxPoint x="220" y="420"/>
                            </Array>
                        </mxGeometry>
                    </mxCell>
                </object>
                <object label="" reaction="vCyc" id="68">
                    <mxCell style="edgeStyle=orthogonalEdgeStyle;curved=1;rounded=0;orthogonalLoop=1;jettySize=auto;html=1;exitX=0.5;exitY=0;exitDx=0;exitDy=0;entryX=0.5;entryY=0;entryDx=0;entryDy=0;endArrow=classic;endFill=1;strokeWidth=1;dashed=1;strokeColor=#707070" parent="1" source="69" target="66" edge="1">
                        <mxGeometry relative="1" as="geometry">
                            <Array as="points">
                                <mxPoint x="180" y="450"/>
                                <mxPoint x="240" y="450"/>
                                <mxPoint x="240" y="470"/>
                                <mxPoint x="220" y="470"/>
                            </Array>
                        </mxGeometry>
                    </mxCell>
                </object>
                <object label="" reaction="vGR" id="83">
                    <mxCell style="edgeStyle=orthogonalEdgeStyle;rounded=0;orthogonalLoop=1;jettySize=auto;html=1;strokeColor=#808080;strokeWidth=2;fillColor=#1ba1e2;elbow=vertical;curved=1;exitX=0;exitY=0.5;exitDx=0;exitDy=0;entryX=0;entryY=0.5;entryDx=0;entryDy=0" parent="1" edge="1">
                        <mxGeometry relative="1" as="geometry">
                            <mxPoint x="599.9999999999995" y="551.45" as="sourcePoint"/>
                            <mxPoint x="599.9999999999995" y="477.45000000000005" as="targetPoint"/>
                            <Array as="points">
                                <mxPoint x="580" y="551.45"/>
                                <mxPoint x="580" y="477.45000000000005"/>
                            </Array>
                        </mxGeometry>
                    </mxCell>
                </object>
                <object label="" reaction="vPS2" id="104">
                    <mxCell style="edgeStyle=orthogonalEdgeStyle;rounded=0;orthogonalLoop=1;jettySize=auto;html=1;exitX=0;exitY=0.5;exitDx=0;exitDy=0;curved=1;entryX=0.5;entryY=1;entryDx=0;entryDy=0;strokeColor=#4f4f4f" parent="1" source="105" target="69" edge="1">
                        <mxGeometry relative="1" as="geometry">
                            <mxPoint x="210" y="580" as="targetPoint"/>
                            <Array as="points">
                                <mxPoint x="180" y="600"/>
                            </Array>
                        </mxGeometry>
                    </mxCell>
                </object>
                <object label="" reaction="vPS1" id="145">
                    <mxCell style="edgeStyle=orthogonalEdgeStyle;curved=1;rounded=0;orthogonalLoop=1;jettySize=auto;html=1;exitX=1;exitY=1;exitDx=0;exitDy=0;entryX=0;entryY=0;entryDx=0;entryDy=0;strokeColor=#000000" parent="1" source="140" target="141" edge="1">
                        <mxGeometry relative="1" as="geometry">
                            <Array as="points">
                                <mxPoint x="274" y="353"/>
                            </Array>
                        </mxGeometry>
                    </mxCell>
                </object>
                <object label="" reaction="vFNR" id="142">
                    <mxCell style="edgeStyle=orthogonalEdgeStyle;rounded=0;orthogonalLoop=1;jettySize=auto;html=1;exitX=0.5;exitY=0;exitDx=0;exitDy=0;entryX=1;entryY=0.5;entryDx=0;entryDy=0;strokeColor=#505050;curved=1" parent="1" source="141" target="140" edge="1">
                        <mxGeometry relative="1" as="geometry">
                            <Array as="points">
                                <mxPoint x="310" y="330"/>
                            </Array>
                        </mxGeometry>
                    </mxCell>
                </object>
                <object label="" reaction="vCyc" id="154">
                    <mxCell style="edgeStyle=orthogonalEdgeStyle;curved=1;rounded=0;orthogonalLoop=1;jettySize=auto;html=1;exitX=0.5;exitY=1;exitDx=0;exitDy=0;entryX=1;entryY=0;entryDx=0;entryDy=0;strokeColor=#707070;endArrow=none;endFill=0" parent="1" source="141" target="59" edge="1">
                        <mxGeometry relative="1" as="geometry">
                            <Array as="points">
                                <mxPoint x="310" y="450"/>
                            </Array>
                        </mxGeometry>
                    </mxCell>
                </object>
                <object label="" reaction="vAscorbate" id="74">
                    <mxCell style="edgeStyle=orthogonalEdgeStyle;curved=1;rounded=0;orthogonalLoop=1;jettySize=auto;html=1;exitX=0.5;exitY=1;exitDx=0;exitDy=0;strokeColor=#7f7f7f;strokeWidth=1" parent="1" source="75" target="73" edge="1">
                        <mxGeometry x="220" y="324.45" as="geometry"/>
                    </mxCell>
                </object>
                <object label="" reaction="vDHAR" id="76">
                    <mxCell style="edgeStyle=orthogonalEdgeStyle;curved=1;rounded=0;orthogonalLoop=1;jettySize=auto;html=1;exitX=1;exitY=0.5;exitDx=0;exitDy=0;entryX=0.5;entryY=0;entryDx=0;entryDy=0;strokeColor=#808080;strokeWidth=1" parent="1" source="77" target="75" edge="1">
                        <mxGeometry x="220" y="324.45" as="geometry">
                            <Array as="points">
                                <mxPoint x="500" y="585.97"/>
                                <mxPoint x="500" y="417.97"/>
                                <mxPoint x="421" y="417.97"/>
                            </Array>
                        </mxGeometry>
                    </mxCell>
                </object>
                <object label="" reaction="v3ASC" id="71">
                    <mxCell style="edgeStyle=orthogonalEdgeStyle;curved=1;rounded=0;orthogonalLoop=1;jettySize=auto;html=1;exitX=0.5;exitY=1;exitDx=0;exitDy=0;entryX=0;entryY=0.5;entryDx=0;entryDy=0;strokeColor=#808080;strokeWidth=1" parent="1" source="73" target="77" edge="1">
                        <mxGeometry x="220" y="324.45" as="geometry"/>
                    </mxCell>
                </object>
                <object label="" reaction="v3ASC" id="72">
                    <mxCell style="edgeStyle=orthogonalEdgeStyle;curved=1;rounded=0;orthogonalLoop=1;jettySize=auto;html=1;exitX=0.5;exitY=1;exitDx=0;exitDy=0;entryX=0;entryY=0.5;entryDx=0;entryDy=0;strokeColor=#808080;strokeWidth=1" parent="1" source="73" target="78" edge="1">
                        <mxGeometry x="220" y="324.45" as="geometry"/>
                    </mxCell>
                </object>
                <object label="" reaction="vGR" id="81">
                    <mxCell style="edgeStyle=orthogonalEdgeStyle;curved=1;rounded=0;orthogonalLoop=1;jettySize=auto;html=1;exitX=1;exitY=0.5;exitDx=0;exitDy=0;entryX=1;entryY=0.5;entryDx=0;entryDy=0;strokeColor=#808080;strokeWidth=1" parent="1" source="82" target="80" edge="1">
                        <mxGeometry x="220" y="324.45" as="geometry"/>
                    </mxCell>
                </object>
                <object label="" reaction="vDHAR" id="79">
                    <mxCell style="edgeStyle=orthogonalEdgeStyle;curved=1;rounded=0;orthogonalLoop=1;jettySize=auto;html=1;exitX=0;exitY=0.5;exitDx=0;exitDy=0;entryX=0;entryY=0.5;entryDx=0;entryDy=0;strokeColor=#808080;strokeWidth=1" parent="1" source="80" target="82" edge="1">
                        <mxGeometry x="220" y="324.45" as="geometry"/>
                    </mxCell>
                </object>
                <object label="" reaction="vMehler" id="156">
                    <mxCell style="edgeStyle=orthogonalEdgeStyle;curved=1;rounded=0;orthogonalLoop=1;jettySize=auto;html=1;exitX=1;exitY=0.5;exitDx=0;exitDy=0;entryX=0;entryY=0.5;entryDx=0;entryDy=0;endArrow=classic;endFill=1;strokeColor=#7f7f7f" parent="1" source="87" target="91" edge="1">
                        <mxGeometry relative="1" as="geometry">
                            <Array as="points">
                                <mxPoint x="300" y="250"/>
                                <mxPoint x="300" y="280"/>
                            </Array>
                        </mxGeometry>
                    </mxCell>
                </object>
                <object label="" reaction="vMehler" id="157">
                    <mxCell style="edgeStyle=orthogonalEdgeStyle;curved=1;rounded=0;orthogonalLoop=1;jettySize=auto;html=1;endArrow=classic;endFill=1;strokeColor=#7f7f7f" parent="1" source="89" target="91" edge="1">
                        <mxGeometry relative="1" as="geometry"/>
                    </mxCell>
                </object>
                <object label="" reaction="vMehler" id="158">
                    <mxCell style="edgeStyle=orthogonalEdgeStyle;curved=1;rounded=0;orthogonalLoop=1;jettySize=auto;html=1;exitX=1;exitY=0.5;exitDx=0;exitDy=0;entryX=0;entryY=0.5;entryDx=0;entryDy=0;endArrow=classic;endFill=1;strokeColor=#7f7f7f" parent="1" source="89" target="90" edge="1">
                        <mxGeometry relative="1" as="geometry">
                            <Array as="points">
                                <mxPoint x="300" y="280"/>
                                <mxPoint x="300" y="250"/>
                            </Array>
                        </mxGeometry>
                    </mxCell>
                </object>
                <object label="" reaction="vMehler" id="84">
                    <mxCell style="edgeStyle=orthogonalEdgeStyle;rounded=0;orthogonalLoop=1;jettySize=auto;html=1;exitX=0;exitY=0.5;exitDx=0;exitDy=0;entryX=0;entryY=0.5;entryDx=0;entryDy=0;curved=1;strokeColor=#7f7f7f" parent="1" source="85" target="87" edge="1">
                        <mxGeometry x="240" y="210" as="geometry">
                            <Array as="points">
                                <mxPoint x="240" y="220"/>
                                <mxPoint x="240" y="250"/>
                            </Array>
                        </mxGeometry>
                    </mxCell>
                </object>
                <object label="" reaction="vMDAreduct" id="92">
                    <mxCell style="edgeStyle=orthogonalEdgeStyle;curved=1;rounded=0;orthogonalLoop=1;jettySize=auto;html=1;exitX=1;exitY=0.5;exitDx=0;exitDy=0;entryX=1;entryY=0.5;entryDx=0;entryDy=0;strokeColor=#7f7f7f;strokeWidth=2;fillColor=#1ba1e2" parent="1" source="73" target="75" edge="1">
                        <mxGeometry x="220" y="324.45" as="geometry"/>
                    </mxCell>
                </object>
                <object label="" reaction="vAscorbate" id="70">
                    <mxCell style="edgeStyle=orthogonalEdgeStyle;curved=1;rounded=0;orthogonalLoop=1;jettySize=auto;html=1;exitX=1;exitY=0.5;exitDx=0;exitDy=0;entryX=0.5;entryY=0;entryDx=0;entryDy=0;strokeColor=#7f7f7f;strokeWidth=1" parent="1" source="91" target="73" edge="1">
                        <mxGeometry x="240" y="210" as="geometry">
                            <mxPoint x="649.9999999999948" y="673.52" as="sourcePoint"/>
                            <Array as="points">
                                <mxPoint x="390" y="280"/>
                                <mxPoint x="390" y="510"/>
                                <mxPoint x="421" y="510"/>
                            </Array>
                        </mxGeometry>
                    </mxCell>
                </object>
                <object label="" reaction="vMehler" id="86">
                    <mxCell style="edgeStyle=orthogonalEdgeStyle;curved=1;rounded=0;orthogonalLoop=1;jettySize=auto;html=1;exitX=1;exitY=0.5;exitDx=0;exitDy=0;entryX=0;entryY=0.5;entryDx=0;entryDy=0;strokeColor=#7f7f7f" parent="1" source="87" target="90" edge="1">
                        <mxGeometry x="240" y="210" as="geometry"/>
                    </mxCell>
                </object>
                <object label="" reaction="vB6f" id="162">
                    <mxCell style="edgeStyle=orthogonalEdgeStyle;curved=1;rounded=0;orthogonalLoop=1;jettySize=auto;html=1;exitX=1;exitY=0.5;exitDx=0;exitDy=0;entryX=1;entryY=1;entryDx=0;entryDy=0;endArrow=classic;endFill=1;strokeColor=#404040" parent="1" source="159" target="160" edge="1">
                        <mxGeometry relative="1" as="geometry"/>
                    </mxCell>
                </object>
                <object label="" reaction="vPS1" id="163">
                    <mxCell style="edgeStyle=orthogonalEdgeStyle;curved=1;rounded=0;orthogonalLoop=1;jettySize=auto;html=1;exitX=0;exitY=0.5;exitDx=0;exitDy=0;entryX=0;entryY=0.5;entryDx=0;entryDy=0;endArrow=classic;endFill=1;strokeColor=#000000" parent="1" source="160" target="159" edge="1">
                        <mxGeometry relative="1" as="geometry"/>
                    </mxCell>
                </object>
                <object label="" reaction="vAldolase" id="211">
                    <mxCell style="edgeStyle=orthogonalEdgeStyle;curved=1;rounded=0;orthogonalLoop=1;jettySize=auto;html=1;exitX=0.5;exitY=0;exitDx=0;exitDy=0;entryX=0.5;entryY=1;entryDx=0;entryDy=0;strokeColor=#7f7f7f" parent="1" source="209" target="210" edge="1">
                        <mxGeometry x="360" y="80" as="geometry"/>
                    </mxCell>
                </object>
                <object label="" reaction="vFBPase" id="217">
                    <mxCell style="edgeStyle=orthogonalEdgeStyle;rounded=0;orthogonalLoop=1;jettySize=auto;html=1;exitX=0.5;exitY=0;exitDx=0;exitDy=0;strokeColor=#7f7f7f;curved=1" parent="1" source="210" edge="1">
                        <mxGeometry x="360" y="80" as="geometry">
                            <mxPoint x="560" y="260" as="targetPoint"/>
                        </mxGeometry>
                    </mxCell>
                </object>
                <object label="" reaction="vStarch" id="218">
                    <mxCell style="edgeStyle=orthogonalEdgeStyle;curved=1;rounded=0;orthogonalLoop=1;jettySize=auto;html=1;entryX=0.5;entryY=0;entryDx=0;entryDy=0;strokeWidth=1;fillColor=#008a00;strokeColor=#7f7f7f;exitX=1;exitY=0.5;exitDx=0;exitDy=0" parent="1" source="216" target="215" edge="1">
                        <mxGeometry x="360" y="80" as="geometry">
                            <mxPoint x="770" y="175" as="sourcePoint"/>
                        </mxGeometry>
                    </mxCell>
                </object>
                <object label="" reaction="v13" id="219">
                    <mxCell style="edgeStyle=orthogonalEdgeStyle;rounded=0;orthogonalLoop=1;jettySize=auto;html=1;exitX=1;exitY=0.5;exitDx=0;exitDy=0;curved=1;entryX=0;entryY=0.5;entryDx=0;entryDy=0;strokeColor=#7f7f7f" parent="1" source="220" target="212" edge="1">
                        <mxGeometry x="360" y="80" as="geometry"/>
                    </mxCell>
                </object>
                <object label="" reaction="v11" id="221">
                    <mxCell style="edgeStyle=orthogonalEdgeStyle;rounded=0;orthogonalLoop=1;jettySize=auto;html=1;exitX=0.5;exitY=0;exitDx=0;exitDy=0;entryX=0.5;entryY=1;entryDx=0;entryDy=0;strokeColor=#7f7f7f;curved=1" parent="1" source="222" target="220" edge="1">
                        <mxGeometry x="360" y="80" as="geometry"/>
                    </mxCell>
                </object>
                <object label="" reaction="v12" id="223">
                    <mxCell style="edgeStyle=orthogonalEdgeStyle;rounded=0;orthogonalLoop=1;jettySize=auto;html=1;exitX=0.5;exitY=0;exitDx=0;exitDy=0;entryX=0.5;entryY=1;entryDx=0;entryDy=0;strokeColor=#7f7f7f;curved=1" parent="1" source="224" target="220" edge="1">
                        <mxGeometry x="360" y="80" as="geometry"/>
                    </mxCell>
                </object>
                <object label="" reaction="vF6P_Transketolase" id="225">
                    <mxCell style="edgeStyle=orthogonalEdgeStyle;curved=1;rounded=0;orthogonalLoop=1;jettySize=auto;html=1;exitX=0;exitY=0.5;exitDx=0;exitDy=0;strokeColor=#7f7f7f;entryX=1;entryY=0.5;entryDx=0;entryDy=0" parent="1" source="216" target="224" edge="1">
                        <mxGeometry x="360" y="80" as="geometry">
                            <mxPoint x="390" y="280" as="targetPoint"/>
                        </mxGeometry>
                    </mxCell>
                </object>
                <object label="" reaction="vF6P_Transketolase" id="227">
                    <mxCell style="edgeStyle=orthogonalEdgeStyle;curved=1;rounded=0;orthogonalLoop=1;jettySize=auto;html=1;exitX=0;exitY=0.5;exitDx=0;exitDy=0;entryX=1;entryY=0.5;entryDx=0;entryDy=0;strokeColor=#7f7f7f" parent="1" source="216" target="226" edge="1">
                        <mxGeometry x="360" y="80" as="geometry"/>
                    </mxCell>
                </object>
                <object label="" reaction="v8" id="229">
                    <mxCell style="edgeStyle=orthogonalEdgeStyle;curved=1;rounded=0;orthogonalLoop=1;jettySize=auto;html=1;exitX=0;exitY=0.5;exitDx=0;exitDy=0;entryX=0.5;entryY=1;entryDx=0;entryDy=0;strokeColor=#7f7f7f" parent="1" source="209" target="228" edge="1">
                        <mxGeometry x="360" y="80" as="geometry"/>
                    </mxCell>
                </object>
                <object label="" reaction="v8" id="230">
                    <mxCell style="edgeStyle=orthogonalEdgeStyle;curved=1;rounded=0;orthogonalLoop=1;jettySize=auto;html=1;exitX=0;exitY=0.5;exitDx=0;exitDy=0;entryX=0.5;entryY=1;entryDx=0;entryDy=0;strokeColor=#7f7f7f" parent="1" source="226" target="228" edge="1">
                        <mxGeometry x="360" y="80" as="geometry"/>
                    </mxCell>
                </object>
                <object label="" reaction="v10" id="231">
                    <mxCell style="edgeStyle=orthogonalEdgeStyle;curved=1;rounded=0;orthogonalLoop=1;jettySize=auto;html=1;exitX=0.5;exitY=0;exitDx=0;exitDy=0;entryX=0.5;entryY=1;entryDx=0;entryDy=0;strokeColor=#7f7f7f" parent="1" source="233" target="222" edge="1">
                        <mxGeometry x="360" y="80" as="geometry"/>
                    </mxCell>
                </object>
                <object label="" reaction="v10" id="232">
                    <mxCell style="edgeStyle=orthogonalEdgeStyle;curved=1;rounded=0;orthogonalLoop=1;jettySize=auto;html=1;exitX=0.5;exitY=0;exitDx=0;exitDy=0;entryX=0.5;entryY=1;entryDx=0;entryDy=0;strokeColor=#7f7f7f" parent="1" source="233" target="224" edge="1">
                        <mxGeometry x="360" y="80" as="geometry"/>
                    </mxCell>
                </object>
                <object label="" reaction="v9" id="234">
                    <mxCell style="edgeStyle=orthogonalEdgeStyle;curved=1;rounded=0;orthogonalLoop=1;jettySize=auto;html=1;exitX=0.5;exitY=0;exitDx=0;exitDy=0;entryX=0.5;entryY=1;entryDx=0;entryDy=0;strokeColor=#7f7f7f" parent="1" source="228" target="233" edge="1">
                        <mxGeometry x="360" y="80" as="geometry"/>
                    </mxCell>
                </object>
                <object label="" reaction="vTPI" id="235">
                    <mxCell style="edgeStyle=orthogonalEdgeStyle;curved=1;rounded=0;orthogonalLoop=1;jettySize=auto;html=1;exitX=0.5;exitY=1;exitDx=0;exitDy=0;strokeWidth=1;strokeColor=#7f7f7f;entryX=1;entryY=0.5;entryDx=0;entryDy=0" parent="1" source="244" target="209" edge="1">
                        <mxGeometry x="360" y="80" as="geometry"/>
                    </mxCell>
                </object>
                <object label="" reaction="vAldolase" id="236">
                    <mxCell style="edgeStyle=orthogonalEdgeStyle;curved=1;rounded=0;orthogonalLoop=1;jettySize=auto;html=1;exitX=0.5;exitY=1;exitDx=0;exitDy=0;entryX=0.5;entryY=1;entryDx=0;entryDy=0;strokeWidth=1;strokeColor=#7f7f7f" parent="1" source="244" target="210" edge="1">
                        <mxGeometry x="360" y="80" as="geometry"/>
                    </mxCell>
                </object>
                <object label="" reaction="vRuBisCO" id="237">
                    <mxCell style="edgeStyle=orthogonalEdgeStyle;curved=1;rounded=0;orthogonalLoop=1;jettySize=auto;html=1;exitX=1;exitY=0.5;exitDx=0;exitDy=0;entryX=0;entryY=0.5;entryDx=0;entryDy=0;strokeWidth=1;strokeColor=#7f7f7f" parent="1" source="212" target="240" edge="1">
                        <mxGeometry x="360" y="80" as="geometry"/>
                    </mxCell>
                </object>
                <object label="" reaction="vRuBisCO" id="238">
                    <mxCell style="edgeStyle=orthogonalEdgeStyle;rounded=0;orthogonalLoop=1;jettySize=auto;html=1;exitX=0.5;exitY=0;exitDx=0;exitDy=0;strokeWidth=1;curved=1;entryX=0;entryY=0.5;entryDx=0;entryDy=0;strokeColor=#7f7f7f" parent="1" source="213" target="240" edge="1">
                        <mxGeometry x="360" y="80" as="geometry"/>
                    </mxCell>
                </object>
                <object label="" reaction="vF6P_Transketolase" id="239">
                    <mxCell style="edgeStyle=orthogonalEdgeStyle;curved=1;rounded=0;orthogonalLoop=1;jettySize=auto;html=1;exitX=0;exitY=0.5;exitDx=0;exitDy=0;entryX=1;entryY=0.5;entryDx=0;entryDy=0;strokeColor=#7f7f7f" parent="1" source="244" target="224" edge="1">
                        <mxGeometry x="360" y="80" as="geometry">
                            <Array as="points">
                                <mxPoint x="600" y="250"/>
                                <mxPoint x="600" y="170"/>
                            </Array>
                        </mxGeometry>
                    </mxCell>
                </object>
                <object label="" reaction="vPGA_kinase" id="242">
                    <mxCell style="edgeStyle=orthogonalEdgeStyle;curved=1;rounded=0;orthogonalLoop=1;jettySize=auto;html=1;exitX=0.5;exitY=1;exitDx=0;exitDy=0;strokeWidth=1;fillColor=#008a00;strokeColor=#7e7e7e" parent="1" source="240" target="241" edge="1">
                        <mxGeometry x="460" y="100" as="geometry"/>
                    </mxCell>
                </object>
                <object label="" reaction="v10" id="243">
                    <mxCell style="edgeStyle=orthogonalEdgeStyle;rounded=0;orthogonalLoop=1;jettySize=auto;html=1;exitX=0;exitY=0.5;exitDx=0;exitDy=0;strokeColor=#7f7f7f;entryX=0.5;entryY=1;entryDx=0;entryDy=0;curved=1" parent="1" source="244" target="224" edge="1">
                        <mxGeometry x="360" y="80" as="geometry">
                            <mxPoint x="580" y="160" as="targetPoint"/>
                            <Array as="points">
                                <mxPoint x="580" y="250"/>
                                <mxPoint x="580" y="210"/>
                                <mxPoint x="460" y="210"/>
                            </Array>
                        </mxGeometry>
                    </mxCell>
                </object>
                <object label="" reaction="vBPGA_dehydrogenase" id="245">
                    <mxCell style="edgeStyle=orthogonalEdgeStyle;curved=1;rounded=0;orthogonalLoop=1;jettySize=auto;html=1;entryX=0.5;entryY=0;entryDx=0;entryDy=0;strokeWidth=1;fillColor=#1ba1e2;strokeColor=#7e7e7e;exitX=0.5;exitY=1;exitDx=0;exitDy=0" parent="1" source="241" target="244" edge="1">
                        <mxGeometry x="460" y="100" as="geometry">
                            <mxPoint x="600" y="110" as="sourcePoint"/>
                        </mxGeometry>
                    </mxCell>
                </object>
                <object label="" reaction="vpga" id="246">
                    <mxCell style="edgeStyle=orthogonalEdgeStyle;curved=1;rounded=0;orthogonalLoop=1;jettySize=auto;html=1;exitX=1;exitY=0.5;exitDx=0;exitDy=0;fontSize=12;fillColor=#f5f5f5;dashed=1;strokeColor=#7f7f7f" parent="1" source="240" edge="1">
                        <mxGeometry x="840" y="39.76" as="geometry">
                            <mxPoint x="800" y="90" as="targetPoint"/>
                            <mxPoint x="699.9999999999965" y="90" as="sourcePoint"/>
                        </mxGeometry>
                    </mxCell>
                </object>
                <object label="" reaction="vdhap" id="247">
                    <mxCell style="edgeStyle=orthogonalEdgeStyle;curved=1;rounded=0;orthogonalLoop=1;jettySize=auto;html=1;exitX=1;exitY=0.5;exitDx=0;exitDy=0;fontSize=12;dashed=1;strokeColor=#7f7f7f" parent="1" source="209" edge="1">
                        <mxGeometry x="830" y="9.759999999999991" as="geometry">
                            <mxPoint x="800" y="370" as="targetPoint"/>
                            <mxPoint x="699.9999999999965" y="170" as="sourcePoint"/>
                            <Array as="points"/>
                        </mxGeometry>
                    </mxCell>
                </object>
                <object label="" reaction="vgap" id="248">
                    <mxCell style="edgeStyle=orthogonalEdgeStyle;curved=1;rounded=0;orthogonalLoop=1;jettySize=auto;html=1;exitX=1;exitY=0.5;exitDx=0;exitDy=0;fontSize=12;dashed=1;strokeColor=#7f7f7f" parent="1" source="244" edge="1">
                        <mxGeometry x="840" y="49.760000000000005" as="geometry">
                            <mxPoint x="800" y="250" as="targetPoint"/>
                            <mxPoint x="699.9999999999965" y="250" as="sourcePoint"/>
                        </mxGeometry>
                    </mxCell>
                </object>
                <mxCell id="16" value="ATP&lt;br&gt;ase" style="rounded=0;whiteSpace=wrap;html=1;strokeColor=#000000;strokeWidth=2;" parent="1" vertex="1">
                    <mxGeometry x="160" y="120" width="80" height="40" as="geometry"/>
                </mxCell>
                <mxCell id="17" value="CytB6f" style="rounded=0;whiteSpace=wrap;html=1;strokeColor=#000000;strokeWidth=2;" parent="1" vertex="1">
                    <mxGeometry x="160" y="380" width="80" height="40" as="geometry"/>
                </mxCell>
            </root>
        </mxGraphModel>
    </diagram>
</mxfile>
